<svg width="24" height="24" viewBox="0 0 24 24" fill="none" xmlns="http://www.w3.org/2000/svg">
<path fill-rule="evenodd" clip-rule="evenodd" d="M12 21.75L13.3018 22.5L15.8735 18H19.5C19.894 18.0001 20.2841 17.9225 20.6481 17.7718C21.0121 17.621 21.3429 17.4001 21.6215 17.1215C21.9001 16.8429 22.121 16.5121 22.2718 16.1481C22.4225 15.7841 22.5001 15.394 22.5 15V6C22.5001 5.606 22.4226 5.21584 22.2719 4.85181C22.1212 4.48778 21.9002 4.15702 21.6216 3.87842C21.343 3.59982 21.0122 3.37884 20.6482 3.22812C20.2842 3.0774 19.894 2.99988 19.5 3H4.5C4.106 2.99988 3.71584 3.0774 3.35181 3.22812C2.98778 3.37884 2.65702 3.59982 2.37842 3.87842C2.09982 4.15702 1.87884 4.48778 1.72812 4.85181C1.5774 5.21584 1.49988 5.606 1.5 6V15C1.49993 15.394 1.57748 15.7841 1.72822 16.1481C1.87896 16.5121 2.09994 16.8429 2.37853 17.1215C2.65712 17.4001 2.98786 17.621 3.35187 17.7718C3.71588 17.9225 4.10601 18.0001 4.5 18H11.25V16.5H4.5C4.30292 16.5003 4.10772 16.4618 3.92558 16.3865C3.74344 16.3112 3.57795 16.2008 3.43859 16.0614C3.29924 15.9221 3.18876 15.7566 3.1135 15.5744C3.03823 15.3923 2.99966 15.1971 3 15V6C2.99966 5.80292 3.03823 5.60772 3.1135 5.42558C3.18876 5.24344 3.29924 5.07795 3.43859 4.93859C3.57795 4.79924 3.74344 4.68876 3.92558 4.6135C4.10772 4.53823 4.30292 4.49966 4.5 4.5H19.5C19.6971 4.49966 19.8923 4.53823 20.0744 4.6135C20.2566 4.68876 20.4221 4.79924 20.5614 4.93859C20.7008 5.07795 20.8112 5.24344 20.8865 5.42558C20.9618 5.60772 21.0003 5.80292 21 6V15C21.0003 15.1971 20.9618 15.3923 20.8865 15.5744C20.8112 15.7566 20.7008 15.9221 20.5614 16.0614C20.4221 16.2008 20.2566 16.3112 20.0744 16.3865C19.8923 16.4618 19.6971 16.5003 19.5 16.5H15L12 21.75ZM19.5 9.75H16.5V11.25H19.5V9.75ZM4.5 12.75H6.75V14.25H4.5V12.75ZM12.75 12.75H8.25V14.25H12.75V12.75ZM14.25 12.75V14.25H18.75V12.75H14.25ZM9.75 9.75H15V11.25H9.75V9.75ZM8.25 9.75H4.5V11.25H8.25V9.75Z" fill="#6C6C6C"/>
</svg>
