<svg width="24" height="24" viewBox="0 0 24 24" fill="none" xmlns="http://www.w3.org/2000/svg">
<path fill-rule="evenodd" clip-rule="evenodd" d="M4.09956 13.1504C4.80258 13.8535 5.75577 14.2489 6.75 14.25C7.74423 14.2489 8.69742 13.8535 9.40044 13.1504C10.1035 12.4474 10.4989 11.4942 10.5 10.5V3.75C10.5 3.15326 10.2629 2.58097 9.84099 2.15901C9.41903 1.73705 8.84674 1.5 8.25 1.5C7.65326 1.5 7.08097 1.73705 6.65901 2.15901C6.23705 2.58097 6 3.15326 6 3.75V11.25H7.5V3.75C7.5 3.55109 7.57902 3.36032 7.71967 3.21967C7.86032 3.07902 8.05109 3 8.25 3C8.44891 3 8.63968 3.07902 8.78033 3.21967C8.92098 3.36032 9 3.55109 9 3.75V10.5C9 11.0967 8.76295 11.669 8.34099 12.091C7.91903 12.5129 7.34674 12.75 6.75 12.75C6.15326 12.75 5.58097 12.5129 5.15901 12.091C4.73705 11.669 4.5 11.0967 4.5 10.5V2.25H3V10.5C3.00109 11.4942 3.39653 12.4474 4.09956 13.1504ZM19.5 22.5H8.25C7.85232 22.4995 7.47105 22.3414 7.18984 22.0602C6.90864 21.7789 6.75046 21.3977 6.75 21V16.5H8.25V21H19.5V4.5H12.75V3H19.5C19.8977 3.00046 20.2789 3.15864 20.5602 3.43984C20.8414 3.72105 20.9995 4.10232 21 4.5V21C20.9995 21.3977 20.8414 21.7789 20.5602 22.0602C20.2789 22.3414 19.8977 22.4995 19.5 22.5ZM18 7.5H12.75V9H18V7.5ZM12 11.25H18V12.75H12V11.25ZM18 15H11.25V16.5H18V15Z" fill="#7D7D7D"/>
</svg>
