<svg width="24" height="24" viewBox="0 0 24 24" fill="none" xmlns="http://www.w3.org/2000/svg">
<path fill-rule="evenodd" clip-rule="evenodd" d="M17.25 16.5H17.625C18.8277 16.4924 19.9851 16.0404 20.8748 15.2311C21.7644 14.4217 22.3235 13.312 22.4444 12.1154C22.5654 10.9188 22.2397 9.71968 21.5301 8.74864C20.8204 7.7776 19.7769 7.10316 18.6 6.855C18.2762 5.34489 17.4444 3.99148 16.2433 3.0206C15.0422 2.04972 13.5444 1.5201 12 1.5201C10.4556 1.5201 8.95786 2.04972 7.75675 3.0206C6.55564 3.99148 5.7238 5.34489 5.40002 6.855C4.22318 7.10316 3.17961 7.7776 2.46996 8.74864C1.7603 9.71968 1.43465 10.9188 1.55561 12.1154C1.67658 13.312 2.23562 14.4217 3.12526 15.2311C4.01489 16.0404 5.17232 16.4924 6.37502 16.5H6.75002V15H6.37502C5.47991 15.0358 4.60724 14.7146 3.94899 14.1069C3.29074 13.4993 2.90082 12.6551 2.86502 11.76C2.82921 10.8649 3.15045 9.99223 3.75807 9.33397C4.36569 8.67572 5.20991 8.2858 6.10502 8.25H6.75002L6.76502 7.635C6.93141 6.37233 7.55112 5.21321 8.5087 4.37354C9.46628 3.53387 10.6964 3.07091 11.97 3.07091C13.2436 3.07091 14.4738 3.53387 15.4313 4.37354C16.3889 5.21321 17.0086 6.37233 17.175 7.635L17.25 8.25H17.895C18.7901 8.2858 19.6343 8.67572 20.242 9.33397C20.8496 9.99223 21.1708 10.8649 21.135 11.76C21.0992 12.6551 20.7093 13.4993 20.051 14.1069C19.3928 14.7146 18.5201 15.0358 17.625 15H17.25V16.5ZM12.75 10.5V19.6275L14.6925 17.6925L15.75 18.75L12 22.5L8.25001 18.75L9.30751 17.6925L11.25 19.6275V10.5H12.75Z" fill="white"/>
</svg>
