<svg width="24" height="24" viewBox="0 0 24 24" fill="none" xmlns="http://www.w3.org/2000/svg">
<path fill-rule="evenodd" clip-rule="evenodd" d="M3 3V1.5H21V3H17.25V8.25C17.25 9.64239 16.6969 10.9777 15.7123 11.9623C14.7277 12.9469 13.3924 13.5 12 13.5C10.6076 13.5 9.27226 12.9469 8.28769 11.9623C7.30312 10.9777 6.75 9.64239 6.75 8.25V3H3ZM15.75 3H8.25V5.25H15.75V3ZM9.34835 10.9017C10.0516 11.6049 11.0054 12 12 12C12.9946 12 13.9484 11.6049 14.6517 10.9017C15.3549 10.1984 15.75 9.24456 15.75 8.25V6.75H8.25V8.25C8.25 9.24456 8.64509 10.1984 9.34835 10.9017ZM3.75 4.5C3.55109 4.5 3.36032 4.57902 3.21967 4.71967C3.07902 4.86032 3 5.05109 3 5.25V12H4.5V5.25C4.5 5.05109 4.42098 4.86032 4.28033 4.71967C4.13968 4.57902 3.94891 4.5 3.75 4.5ZM19.5 22.5H18V20.25C17.9988 19.2558 17.6034 18.3027 16.9004 17.5996C16.1973 16.8966 15.2442 16.5012 14.25 16.5H9.75C8.7558 16.5012 7.80265 16.8966 7.09964 17.5996C6.39664 18.3027 6.00117 19.2558 6 20.25V22.5H4.5V20.25C4.50163 18.8581 5.05527 17.5237 6.03949 16.5395C7.0237 15.5553 8.35811 15.0016 9.75 15H14.25C15.6419 15.0016 16.9763 15.5553 17.9605 16.5395C18.9447 17.5237 19.4984 18.8581 19.5 20.25V22.5Z" fill="#7D7D7D"/>
</svg>
