<svg width="24" height="24" viewBox="0 0 24 24" fill="none" xmlns="http://www.w3.org/2000/svg">
<path fill-rule="evenodd" clip-rule="evenodd" d="M4.5 3H19.5C19.8977 3.00046 20.2789 3.15864 20.5602 3.43984C20.8414 3.72105 20.9995 4.10232 21 4.5V19.5C20.9995 19.8977 20.8414 20.2789 20.5602 20.5602C20.2789 20.8414 19.8977 20.9995 19.5 21H4.5C4.10233 20.9995 3.72109 20.8413 3.43989 20.5601C3.15869 20.2789 3.0005 19.8977 3 19.5V4.5C3.0005 4.10233 3.15869 3.72109 3.43989 3.43989C3.72109 3.15869 4.10233 3.0005 4.5 3ZM19.5 4.5H4.5V19.5H6V18H7.5V19.5H9V18H10.5V19.5H12V18H13.5V19.5H15V18H16.5V19.5H18V18H19.5V16.5H18V15H19.5V13.5H18V12H19.5V4.5ZM6 15H7.5V16.5H6V15ZM10.5 15H9V16.5H10.5V15ZM12 15H13.5V16.5H12V15ZM16.5 15H15V16.5H16.5V15ZM6 12H7.5V13.5H6V12ZM13.5 12H12V13.5H13.5V12ZM15 12H16.5V13.5H15V12ZM16.5 9H15V10.5H16.5V9ZM15 6H16.5V7.5H15V6Z" fill="#7D7D7D"/>
</svg>
