<svg width="54" height="54" viewBox="0 0 54 54" fill="none" xmlns="http://www.w3.org/2000/svg">
<path d="M29.475 7.875L31.05 10.35L32.625 7.875V11.25H34.875V4.5H32.625L31.05 6.975L29.7 4.5H27.225V11.25H29.475V7.875ZM41.4 11.25V9H38.25V4.5H36V11.25H41.4ZM22.05 11.25H24.3V6.75H26.325V4.5H20.025V6.75H22.05V11.25ZM14.85 9H16.875V11.25H19.125V4.5H16.875V6.75H14.85V4.5H12.6V11.25H14.85V9ZM11.25 13.5L13.95 45.9L27 49.5L40.05 45.9L42.75 13.5H11.25ZM36.675 23.85H21.375L21.825 27.9H36.225L35.1 40.275L27 42.525L18.9 40.275L18.225 33.75H22.275L22.5 37.125L27 38.25L31.5 37.125L31.95 31.95H18L16.875 20.025H37.125L36.675 23.85Z" fill="black"/>
</svg>
