<svg width="53" height="53" viewBox="0 0 53 53" fill="none" xmlns="http://www.w3.org/2000/svg">
<path d="M3.3125 3.3125H49.6875V49.6875H3.3125V3.3125Z" fill="#F5DE19"/>
<path d="M34.4649 39.543C34.86 40.3456 35.4739 41.0202 36.2358 41.4891C36.9977 41.9579 37.8766 42.2019 38.7712 42.193C40.5765 42.193 41.7309 41.2903 41.7309 40.0398C41.7309 38.5492 40.545 38.0159 38.5575 37.1464L37.4677 36.6793C34.3208 35.3394 32.2339 33.6616 32.2339 30.1139C32.2339 26.8462 34.7183 24.3568 38.6155 24.3568C39.877 24.2657 41.1375 24.5481 42.2397 25.1686C43.3418 25.7892 44.2369 26.7206 44.8132 27.8465L41.4062 30.0245C41.1843 29.4662 40.798 28.9886 40.2984 28.6549C39.7988 28.3213 39.2095 28.1473 38.6088 28.1562C38.3468 28.13 38.0821 28.1587 37.8317 28.2404C37.5813 28.3221 37.3506 28.455 37.1545 28.6308C36.9583 28.8066 36.8009 29.0213 36.6923 29.2612C36.5837 29.5012 36.5262 29.7611 36.5236 30.0245C36.5236 31.3313 37.3335 31.8613 39.2034 32.6745L40.2932 33.1416C43.9966 34.7299 46.0901 36.3481 46.0901 39.9868C46.0901 43.9105 43.0078 46.0603 38.8689 46.0603C37.2562 46.1631 35.6482 45.7969 34.239 45.0061C32.8298 44.2152 31.6796 43.0334 30.9272 41.6033L34.4649 39.543ZM19.0701 39.9206C19.7541 41.1346 20.3768 42.1615 21.8741 42.1615C23.3051 42.1615 24.2094 41.6017 24.2094 39.4237V24.6052H28.567V39.4817C28.567 43.9933 25.917 46.0471 22.0596 46.0471C20.6961 46.1216 19.3419 45.7818 18.1752 45.0723C17.0084 44.3629 16.0836 43.3169 15.5224 42.0721L19.0701 39.9206Z" fill="black"/>
</svg>
