<svg width="32" height="25" viewBox="0 0 32 25" fill="none" xmlns="http://www.w3.org/2000/svg">
<path d="M31.9093 3.58399C31.8296 3.40977 31.7015 3.26211 31.5403 3.15858C31.3791 3.05505 31.1916 3 31 2.99999C26.2317 2.99999 22.7393 3.88869 20 5.84378V0H18V2.99999H14V0H12V5.84378C9.26084 3.88869 5.76845 2.99999 1.00006 2.99999C0.808417 2.99998 0.620803 3.05504 0.459556 3.15861C0.298308 3.26219 0.170219 3.40991 0.090536 3.58421C0.0108529 3.7585 -0.0170677 3.95203 0.0100978 4.14174C0.0372633 4.33145 0.118371 4.50936 0.243765 4.65429C1.94546 6.62208 3.00006 8.70408 3.00006 13C3.00006 13.2652 3.10541 13.5195 3.29295 13.7071C3.48049 13.8946 3.73484 14 4.00006 14C6.76785 14 10 15.31 10 19C10.0009 19.2535 10.0977 19.4973 10.271 19.6825C10.4443 19.8676 10.6812 19.9803 10.9341 19.9979C11.35 20.0272 15 20.3871 15 23.9999C15 24.2652 15.1054 24.5195 15.2929 24.707C15.4805 24.8946 15.7348 24.9999 16 24.9999C16.2652 24.9999 16.5196 24.8946 16.7071 24.707C16.8947 24.5195 17 24.2652 17 23.9999C17 20.3871 20.65 20.0272 21.0622 19.9979C21.3162 19.9821 21.5545 19.8701 21.7288 19.6847C21.903 19.4993 22 19.2544 22 19C22 15.31 25.2321 14 28 14C28.2652 14 28.5196 13.8946 28.7071 13.7071C28.8946 13.5195 29 13.2652 29 13C29 8.70408 30.0547 6.62208 31.7564 4.65429C31.8818 4.5093 31.9628 4.33134 31.9899 4.14158C32.0171 3.95183 31.9891 3.75828 31.9093 3.58399ZM27.0163 12.044C23.6306 12.3521 20.4629 14.273 20.0463 18.1226C18.434 18.4163 16.9903 19.3035 16 20.6093C15.0097 19.3037 13.5661 18.4166 11.9539 18.123C11.5371 14.273 8.36944 12.3525 4.98395 12.0444C5.00121 9.58245 4.3297 7.16476 3.04526 5.06439C7.17705 5.33679 10.0779 6.49208 12.2932 8.70688C12.4331 8.84661 12.6112 8.94176 12.8051 8.98029C12.999 9.01882 13.2 8.99901 13.3827 8.92336C13.5653 8.84771 13.7215 8.71962 13.8313 8.55527C13.9412 8.39091 13.9999 8.19768 14 7.99998V4.99999H18V7.99998C18.0001 8.19773 18.0587 8.39103 18.1686 8.55544C18.2785 8.71985 18.4347 8.84799 18.6174 8.92366C18.8001 8.99933 19.0011 9.01913 19.195 8.98056C19.389 8.94199 19.5672 8.84679 19.707 8.70698C21.9223 6.49218 24.8232 5.33699 28.955 5.06449C27.6706 7.16483 26.9991 9.58249 27.0163 12.0444V12.044Z" fill="#6D089C"/>
</svg>
