<svg width="24" height="24" viewBox="0 0 24 24" fill="none" xmlns="http://www.w3.org/2000/svg">
<path fill-rule="evenodd" clip-rule="evenodd" d="M3 18H14.25V19.5H3C2.60234 19.4995 2.22112 19.3413 1.93993 19.0601C1.65874 18.7789 1.50054 18.3977 1.5 18V6C1.50046 5.60232 1.65864 5.22105 1.93984 4.93984C2.22105 4.65864 2.60232 4.50046 3 4.5H21C21.3977 4.50054 21.7789 4.65874 22.0601 4.93993C22.3413 5.22112 22.4995 5.60234 22.5 6V13.5H21V6.68152L12.427 12.6167C12.3015 12.7035 12.1526 12.75 12 12.75C11.8474 12.75 11.6985 12.7035 11.573 12.6167L2.99745 6.67965L3 18ZM12 11.0878L19.3489 6H4.65105L12 11.0878ZM22.5 18C22.5 19.6569 21.1569 21 19.5 21C17.8431 21 16.5 19.6569 16.5 18C16.5 16.3431 17.8431 15 19.5 15C21.1569 15 22.5 16.3431 22.5 18Z" fill="#7D7D7D"/>
</svg>
