<svg width="24" height="24" viewBox="0 0 24 24" fill="none" xmlns="http://www.w3.org/2000/svg">
<path fill-rule="evenodd" clip-rule="evenodd" d="M19.5 10.5V12.4394L21.5303 14.4697C21.6709 14.6104 21.75 14.8011 21.75 15V17.25C21.75 17.4489 21.671 17.6397 21.5303 17.7803C21.3897 17.921 21.1989 18 21 18H15.75V18.75C15.75 19.7446 15.3549 20.6984 14.6517 21.4016C13.9484 22.1049 12.9946 22.5 12 22.5C11.0054 22.5 10.0516 22.1049 9.34835 21.4016C8.64509 20.6984 8.25 19.7446 8.25 18.75V18H3C2.80109 18 2.61032 17.921 2.46967 17.7803C2.32902 17.6397 2.25 17.4489 2.25 17.25V15C2.25004 14.8011 2.32909 14.6104 2.46975 14.4697L4.5 12.4394V9.75C4.50241 7.89146 5.19386 6.09983 6.44065 4.72154C7.68744 3.34326 9.40101 2.47622 11.25 2.2881V0.75H12.75V2.2881C13.5267 2.36749 14.2861 2.56894 15 2.88503V4.56187C14.089 4.03206 13.0544 3.75201 12.0005 3.74998C10.9467 3.74796 9.91099 4.02404 8.99799 4.55035C8.08498 5.07666 7.32702 5.83456 6.80063 6.74752C6.27424 7.66047 5.99807 8.69616 6 9.75V12.75C5.99996 12.9489 5.92091 13.1396 5.78025 13.2803L3.75 15.3106V16.5H20.25V15.3106L18.2197 13.2803C18.0791 13.1396 18 12.9489 18 12.75V10.5H19.5ZM13.591 20.341C14.0129 19.919 14.25 19.3467 14.25 18.75V18H9.75V18.75C9.75 19.3467 9.98705 19.919 10.409 20.341C10.831 20.7629 11.4033 21 12 21C12.5967 21 13.169 20.7629 13.591 20.341ZM22.5 6C22.5 7.65685 21.1569 9 19.5 9C17.8431 9 16.5 7.65685 16.5 6C16.5 4.34315 17.8431 3 19.5 3C21.1569 3 22.5 4.34315 22.5 6Z" fill="#6D089C"/>
</svg>
