<svg width="24" height="24" viewBox="0 0 24 24" fill="none" xmlns="http://www.w3.org/2000/svg">
<path fill-rule="evenodd" clip-rule="evenodd" d="M14.6666 5.55761C15.0983 5.84605 15.6058 6 16.125 6C16.8209 5.99917 17.4881 5.72234 17.9802 5.23024C18.4723 4.73813 18.7492 4.07094 18.75 3.375C18.75 2.85583 18.596 2.34831 18.3076 1.91663C18.0192 1.48495 17.6092 1.1485 17.1295 0.949817C16.6499 0.751137 16.1221 0.699154 15.6129 0.80044C15.1037 0.901726 14.636 1.15173 14.2688 1.51885C13.9017 1.88596 13.6517 2.35369 13.5504 2.86289C13.4492 3.37209 13.5011 3.89989 13.6998 4.37955C13.8985 4.8592 14.235 5.26917 14.6666 5.55761ZM15.5 2.4396C15.685 2.31598 15.9025 2.25 16.125 2.25C16.4233 2.25034 16.7092 2.36897 16.9201 2.57988C17.131 2.79078 17.2497 3.07674 17.25 3.375C17.25 3.59751 17.184 3.81501 17.0604 4.00002C16.9368 4.18502 16.7611 4.32922 16.5555 4.41437C16.35 4.49951 16.1238 4.52179 15.9055 4.47838C15.6873 4.43498 15.4868 4.32783 15.3295 4.1705C15.1722 4.01316 15.065 3.81271 15.0216 3.59448C14.9782 3.37625 15.0005 3.15005 15.0856 2.94448C15.1708 2.73892 15.315 2.56321 15.5 2.4396ZM12.75 20.25H11.25V15.3104L7.18868 11.25C6.90775 10.9684 6.74998 10.5868 6.74998 10.1891C6.74998 9.79127 6.90775 9.40973 7.18868 9.12811L10.6281 5.68868C10.9096 5.40778 11.2911 5.25002 11.6888 5.25002C12.0865 5.25002 12.468 5.40778 12.7496 5.68868L16.0605 9.00001H20.25V10.4995L15.439 10.5L11.689 6.75001L8.25 10.1887L12.75 14.6887V20.25ZM2.74994 21.7416C3.48996 22.2361 4.35999 22.5 5.25 22.5C6.44306 22.4986 7.58685 22.0241 8.43047 21.1805C9.27409 20.3369 9.74863 19.1931 9.75 18C9.75 17.11 9.48608 16.24 8.99162 15.4999C8.49715 14.7599 7.79435 14.1831 6.97208 13.8425C6.14981 13.502 5.24501 13.4128 4.3721 13.5865C3.49918 13.7601 2.69736 14.1887 2.06802 14.818C1.43869 15.4474 1.0101 16.2492 0.836468 17.1221C0.662835 17.995 0.75195 18.8998 1.09254 19.7221C1.43314 20.5443 2.00991 21.2472 2.74994 21.7416ZM3.58329 15.5056C4.07664 15.176 4.65666 15 5.25 15C6.04538 15.0009 6.80792 15.3173 7.37034 15.8797C7.93275 16.4421 8.24911 17.2046 8.25 18C8.25 18.5933 8.07406 19.1734 7.74441 19.6667C7.41477 20.1601 6.94623 20.5446 6.39805 20.7716C5.84987 20.9987 5.24667 21.0581 4.66473 20.9424C4.08279 20.8266 3.54824 20.5409 3.12868 20.1213C2.70912 19.7018 2.4234 19.1672 2.30765 18.5853C2.19189 18.0033 2.2513 17.4001 2.47836 16.852C2.70543 16.3038 3.08994 15.8352 3.58329 15.5056ZM16.2499 21.7416C16.99 22.2361 17.86 22.5 18.75 22.5C19.9431 22.4986 21.0869 22.0241 21.9305 21.1805C22.7741 20.3369 23.2486 19.1931 23.25 18C23.25 17.11 22.9861 16.24 22.4916 15.4999C21.9971 14.7599 21.2943 14.1831 20.4721 13.8425C19.6498 13.502 18.745 13.4128 17.8721 13.5865C16.9992 13.7601 16.1974 14.1887 15.568 14.818C14.9387 15.4474 14.5101 16.2492 14.3365 17.1221C14.1628 17.995 14.252 18.8998 14.5925 19.7221C14.9331 20.5443 15.5099 21.2472 16.2499 21.7416ZM17.0833 15.5056C17.5766 15.176 18.1567 15 18.75 15C19.5454 15.0009 20.3079 15.3173 20.8703 15.8797C21.4328 16.4421 21.7491 17.2046 21.75 18C21.75 18.5933 21.5741 19.1734 21.2444 19.6667C20.9148 20.1601 20.4462 20.5446 19.8981 20.7716C19.3499 20.9987 18.7467 21.0581 18.1647 20.9424C17.5828 20.8266 17.0482 20.5409 16.6287 20.1213C16.2091 19.7018 15.9234 19.1672 15.8076 18.5853C15.6919 18.0033 15.7513 17.4001 15.9784 16.852C16.2054 16.3038 16.5899 15.8352 17.0833 15.5056Z" fill="#6C6C6C"/>
</svg>
