<svg width="24" height="24" viewBox="0 0 24 24" fill="none" xmlns="http://www.w3.org/2000/svg">
<path d="M21.75 20.6894L16.0859 15.0253C17.447 13.3914 18.1257 11.2956 17.9808 9.17393C17.836 7.0523 16.8788 5.06818 15.3083 3.63432C13.7378 2.20047 11.675 1.42727 9.549 1.47558C7.42298 1.5239 5.39742 2.39 3.89371 3.89371C2.39 5.39742 1.5239 7.42298 1.47558 9.549C1.42727 11.675 2.20047 13.7378 3.63432 15.3083C5.06818 16.8788 7.0523 17.836 9.17393 17.9808C11.2956 18.1257 13.3914 17.447 15.0253 16.0859L20.6894 21.75L21.75 20.6894ZM2.99999 9.74999C2.99999 8.41497 3.39587 7.10993 4.13757 5.9999C4.87927 4.88986 5.93348 4.0247 7.16688 3.51381C8.40028 3.00292 9.75748 2.86924 11.0669 3.12969C12.3762 3.39014 13.579 4.03302 14.523 4.97702C15.467 5.92103 16.1098 7.12376 16.3703 8.43314C16.6307 9.74251 16.4971 11.0997 15.9862 12.3331C15.4753 13.5665 14.6101 14.6207 13.5001 15.3624C12.3901 16.1041 11.085 16.5 9.74999 16.5C7.96039 16.498 6.24466 15.7862 4.97922 14.5208C3.71378 13.2553 3.00198 11.5396 2.99999 9.74999Z" fill="#6C6C6C"/>
</svg>
