<svg width="24" height="24" viewBox="0 0 24 24" fill="none" xmlns="http://www.w3.org/2000/svg">
<path fill-rule="evenodd" clip-rule="evenodd" d="M20.25 11.9999V12.5699L21.6675 13.8674C21.9292 14.0968 22.1029 14.4101 22.159 14.7535C22.2151 15.0969 22.1501 15.4492 21.975 15.7499L20.265 18.7499C20.1335 18.9777 19.9444 19.167 19.7166 19.2986C19.4889 19.4302 19.2306 19.4997 18.9675 19.4999C18.8045 19.5012 18.6424 19.4759 18.4875 19.4249L16.6725 18.8099C16.3553 19.0191 16.0246 19.207 15.6825 19.3724L15.3 21.2624C15.2314 21.6077 15.0436 21.9179 14.7693 22.1387C14.4951 22.3594 14.152 22.4767 13.8 22.4699H10.26C9.90803 22.4767 9.56489 22.3594 9.29067 22.1387C9.01644 21.9179 8.82859 21.6077 8.76001 21.2624L8.37751 19.3724C8.03789 19.2069 7.70966 19.019 7.39501 18.8099L5.57251 19.4249C5.41764 19.4759 5.25552 19.5012 5.09251 19.4999C4.82946 19.4997 4.57111 19.4302 4.34338 19.2986C4.11564 19.167 3.92653 18.9777 3.79501 18.7499L2.02501 15.7499C1.84193 15.4462 1.77236 15.0875 1.82866 14.7374C1.88495 14.3873 2.06346 14.0684 2.33251 13.8374L3.75001 12.5774V11.9999V11.4299L2.33251 10.1324C2.07085 9.90303 1.89709 9.58979 1.84099 9.24636C1.7849 8.90293 1.84995 8.55068 2.02501 8.24994L3.79501 5.24994C3.92653 5.02214 4.11564 4.83292 4.34338 4.70129C4.57111 4.56965 4.82946 4.50021 5.09251 4.49994C5.25389 4.48896 5.41598 4.50416 5.57251 4.54494L7.35751 5.18994C7.67473 4.9808 8.00546 4.79289 8.34751 4.62744L8.73001 2.73744C8.79859 2.39214 8.98644 2.08197 9.26067 1.86122C9.53489 1.64046 9.87803 1.52319 10.23 1.52994H13.74C14.092 1.52319 14.4351 1.64046 14.7093 1.86122C14.9836 2.08197 15.1714 2.39214 15.24 2.73744L15.6225 4.62744C15.9621 4.79293 16.2903 4.98084 16.605 5.18994L18.4275 4.57494C18.5824 4.52402 18.7445 4.49869 18.9075 4.49994C19.1705 4.50021 19.4289 4.56965 19.6566 4.70129C19.8844 4.83292 20.0735 5.02214 20.205 5.24994L21.975 8.24994C22.1607 8.55113 22.2339 8.90827 22.1818 9.25824C22.1296 9.60821 21.9555 9.92848 21.69 10.1624L20.25 11.4224V11.9999ZM16.335 17.1299L18.9075 17.9999L20.6775 14.9999L18.6375 13.1474C18.7762 12.3711 18.7762 11.5763 18.6375 10.7999L20.6775 8.99994L18.9075 5.99994L16.3275 6.83994C15.7232 6.3368 15.0387 5.93876 14.3025 5.66244L13.77 2.99994H10.23L9.69751 5.69244C8.95546 5.96113 8.26721 6.35986 7.66501 6.86994L5.09251 5.99994L3.32251 8.99994L5.36251 10.8524C5.22383 11.6288 5.22383 12.4236 5.36251 13.1999L3.32251 14.9999L5.09251 17.9999L7.67251 17.1599C8.27679 17.6631 8.96132 18.0611 9.69751 18.3374L10.23 20.9999H13.77L14.3025 18.3074C15.0446 18.0387 15.7328 17.64 16.335 17.1299ZM9.49994 15.7416C10.24 16.2361 11.11 16.5 12 16.5C12.5926 16.506 13.1805 16.3937 13.7292 16.1697C14.2779 15.9457 14.7763 15.6145 15.1954 15.1954C15.6145 14.7763 15.9457 14.2779 16.1697 13.7292C16.3937 13.1805 16.506 12.5926 16.5 12C16.5 11.11 16.2361 10.24 15.7416 9.49994C15.2471 8.75991 14.5443 8.18314 13.7221 7.84254C12.8998 7.50195 11.995 7.41283 11.1221 7.58647C10.2492 7.7601 9.44736 8.18868 8.81802 8.81802C8.18868 9.44736 7.7601 10.2492 7.58647 11.1221C7.41283 11.995 7.50195 12.8998 7.84254 13.7221C8.18314 14.5443 8.75991 15.2471 9.49994 15.7416ZM10.8411 9.20954C11.2093 9.06205 11.6035 8.99077 12 9C12.3965 8.99077 12.7907 9.06205 13.1589 9.20954C13.527 9.35704 13.8615 9.57768 14.1419 9.85812C14.4223 10.1386 14.643 10.473 14.7905 10.8411C14.938 11.2093 15.0092 11.6035 15 12C15.0092 12.3965 14.938 12.7907 14.7905 13.1589C14.643 13.527 14.4223 13.8615 14.1419 14.1419C13.8615 14.4223 13.527 14.643 13.1589 14.7905C12.7907 14.938 12.3965 15.0092 12 15C11.6035 15.0092 11.2093 14.938 10.8411 14.7905C10.473 14.643 10.1386 14.4223 9.85812 14.1419C9.57768 13.8615 9.35704 13.527 9.20954 13.1589C9.06205 12.7907 8.99077 12.3965 9 12C8.99077 11.6035 9.06205 11.2093 9.20954 10.8411C9.35704 10.473 9.57768 10.1386 9.85812 9.85812C10.1386 9.57768 10.473 9.35704 10.8411 9.20954Z" fill="#6C6C6C"/>
</svg>
