<svg width="55" height="56" viewBox="0 0 55 56" fill="none" xmlns="http://www.w3.org/2000/svg">
<path d="M40.9527 14.4252C42.4158 14.7718 43.7453 15.5519 44.7734 16.667C45.3398 17.2705 45.8316 17.9422 46.2378 18.6672C46.2567 18.746 43.6013 20.5625 41.9908 21.5758C41.9323 21.616 41.7003 21.3587 41.4373 20.9632C41.1431 20.4483 40.7256 20.0178 40.2236 19.7117C39.7217 19.4057 39.1517 19.2342 38.567 19.2132C36.7159 19.0837 35.5231 20.0707 35.5317 21.721C35.5157 22.1264 35.6065 22.5288 35.7947 22.8865C36.202 23.744 36.9583 24.2585 39.3336 25.3068C43.7061 27.223 45.583 28.4865 46.7414 30.282C47.3962 31.4165 47.7995 32.683 47.923 33.9928C48.0465 35.3027 47.8873 36.6242 47.4564 37.8647C46.8643 39.2253 45.9253 40.3996 44.7369 41.2659C43.5485 42.1321 42.154 42.6587 40.6983 42.791C39.1509 42.9717 37.5873 42.9553 36.0439 42.742C33.6798 42.3465 31.5019 41.1912 29.8289 39.445C29.1968 38.7202 28.6616 37.9135 28.2373 37.0457C28.4157 36.9106 28.6036 36.789 28.7994 36.6817C29.0709 36.5243 30.0988 35.9223 31.0681 35.35L32.8281 34.3L33.1959 34.846C33.8154 35.748 34.604 36.5164 35.5163 37.107C36.4376 37.6215 37.4811 37.8653 38.5306 37.8113C39.58 37.7572 40.5941 37.4073 41.4597 36.8007C41.9062 36.3576 42.1853 35.7687 42.2482 35.1371C42.311 34.5055 42.1536 33.8715 41.8034 33.3462C41.3291 32.655 40.3597 32.074 37.6045 30.8577C35.4442 30.116 33.4764 28.8866 31.8484 27.2615C31.0731 26.3619 30.5006 25.3005 30.1709 24.1517C29.9272 22.8431 29.8912 21.503 30.0644 20.1827C30.3878 18.6635 31.1621 17.2822 32.2825 16.226C33.4028 15.1698 34.8149 14.4899 36.3275 14.2783C37.8677 14.0909 39.4269 14.1404 40.9527 14.4252ZM26.6131 17.0205L26.632 19.565H18.6742V42.574H13.0625V19.5702H5.10469V17.0712C5.08353 16.2154 5.10648 15.3591 5.17344 14.5057C5.20266 14.4655 10.0409 14.4462 15.907 14.4567L26.5822 14.4865L26.6131 17.0205Z" fill="#007ACC"/>
</svg>
